<?xml version="1.0" encoding="UTF-8"?>
<svg xmlns="http://www.w3.org/2000/svg" xmlns:xlink="http://www.w3.org/1999/xlink" width="36px" height="36px" viewBox="0 0 36 36" version="1.1">
<g id="surface1">
<path style=" stroke:none;fill-rule:nonzero;fill:rgb(99.607843%,95.294118%,95.294118%);fill-opacity:1;" d="M 1.21875 0.675781 C 1.277344 0.675781 1.335938 0.675781 1.394531 0.675781 C 1.59375 0.675781 1.792969 0.675781 1.992188 0.675781 C 2.132812 0.675781 2.277344 0.675781 2.421875 0.675781 C 2.816406 0.671875 3.210938 0.675781 3.605469 0.675781 C 4.027344 0.675781 4.453125 0.675781 4.878906 0.671875 C 5.664062 0.671875 6.449219 0.671875 7.234375 0.671875 C 7.957031 0.671875 8.683594 0.671875 9.410156 0.671875 C 9.507812 0.671875 9.605469 0.671875 9.699219 0.671875 C 9.847656 0.671875 9.992188 0.671875 10.140625 0.671875 C 11.503906 0.671875 12.863281 0.671875 14.226562 0.671875 C 14.277344 0.671875 14.328125 0.671875 14.382812 0.671875 C 14.800781 0.671875 15.214844 0.671875 15.632812 0.671875 C 17.261719 0.671875 18.886719 0.671875 20.515625 0.671875 C 22.34375 0.667969 24.167969 0.667969 25.996094 0.667969 C 26.191406 0.667969 26.386719 0.667969 26.582031 0.667969 C 26.628906 0.667969 26.675781 0.667969 26.726562 0.667969 C 27.453125 0.667969 28.175781 0.667969 28.902344 0.667969 C 29.722656 0.664062 30.546875 0.664062 31.371094 0.667969 C 31.792969 0.667969 32.214844 0.667969 32.632812 0.667969 C 33.019531 0.664062 33.402344 0.667969 33.789062 0.667969 C 33.925781 0.667969 34.066406 0.667969 34.207031 0.667969 C 34.394531 0.664062 34.585938 0.667969 34.773438 0.667969 C 34.828125 0.667969 34.882812 0.667969 34.9375 0.664062 C 35.304688 0.671875 35.511719 0.746094 35.789062 0.984375 C 36.003906 1.257812 36.027344 1.464844 36.027344 1.808594 C 36.027344 1.855469 36.027344 1.902344 36.027344 1.949219 C 36.027344 2.109375 36.027344 2.265625 36.027344 2.421875 C 36.027344 2.535156 36.027344 2.648438 36.027344 2.761719 C 36.03125 3.074219 36.027344 3.386719 36.027344 3.699219 C 36.027344 4.039062 36.027344 4.375 36.03125 4.710938 C 36.03125 5.371094 36.03125 6.03125 36.03125 6.695312 C 36.03125 7.230469 36.03125 7.765625 36.03125 8.304688 C 36.03125 8.378906 36.03125 8.457031 36.03125 8.535156 C 36.03125 8.691406 36.03125 8.84375 36.03125 9 C 36.03125 10.453125 36.03125 11.910156 36.03125 13.363281 C 36.03125 14.695312 36.03125 16.027344 36.03125 17.359375 C 36.035156 18.726562 36.035156 20.089844 36.035156 21.457031 C 36.035156 22.226562 36.035156 22.992188 36.035156 23.761719 C 36.039062 24.414062 36.039062 25.066406 36.035156 25.71875 C 36.035156 26.054688 36.035156 26.386719 36.035156 26.71875 C 36.039062 27.023438 36.035156 27.332031 36.035156 27.636719 C 36.035156 27.746094 36.035156 27.855469 36.035156 27.96875 C 36.039062 28.117188 36.035156 28.265625 36.035156 28.417969 C 36.035156 28.5 36.035156 28.582031 36.035156 28.667969 C 35.980469 29.011719 35.824219 29.238281 35.554688 29.449219 C 35.324219 29.550781 35.15625 29.558594 34.90625 29.554688 C 34.859375 29.558594 34.816406 29.558594 34.769531 29.558594 C 34.617188 29.558594 34.464844 29.554688 34.3125 29.554688 C 34.207031 29.554688 34.097656 29.554688 33.988281 29.554688 C 33.691406 29.554688 33.398438 29.554688 33.101562 29.550781 C 32.792969 29.550781 32.484375 29.550781 32.175781 29.550781 C 31.59375 29.550781 31.007812 29.546875 30.425781 29.546875 C 29.761719 29.542969 29.09375 29.542969 28.429688 29.542969 C 27.0625 29.539062 25.695312 29.535156 24.328125 29.53125 C 24.328125 30.738281 24.328125 31.945312 24.328125 33.1875 C 25.304688 33.175781 25.304688 33.175781 26.28125 33.164062 C 26.402344 33.160156 26.527344 33.160156 26.648438 33.160156 C 26.710938 33.160156 26.773438 33.15625 26.839844 33.15625 C 27.234375 33.15625 27.460938 33.203125 27.773438 33.46875 C 28.058594 33.835938 28.039062 34.21875 27.984375 34.664062 C 27.832031 34.984375 27.675781 35.152344 27.351562 35.296875 C 27.101562 35.328125 26.855469 35.324219 26.601562 35.324219 C 26.527344 35.324219 26.449219 35.324219 26.371094 35.324219 C 26.113281 35.328125 25.859375 35.324219 25.601562 35.324219 C 25.417969 35.324219 25.234375 35.328125 25.050781 35.328125 C 24.601562 35.328125 24.15625 35.328125 23.707031 35.328125 C 23.34375 35.328125 22.980469 35.328125 22.617188 35.328125 C 22.566406 35.328125 22.515625 35.328125 22.460938 35.328125 C 22.355469 35.328125 22.25 35.328125 22.144531 35.328125 C 21.160156 35.328125 20.175781 35.328125 19.1875 35.328125 C 18.285156 35.328125 17.386719 35.328125 16.484375 35.328125 C 15.558594 35.332031 14.632812 35.332031 13.707031 35.332031 C 13.1875 35.332031 12.664062 35.332031 12.144531 35.332031 C 11.65625 35.335938 11.167969 35.332031 10.679688 35.332031 C 10.5 35.332031 10.320312 35.332031 10.140625 35.332031 C 9.894531 35.335938 9.652344 35.332031 9.40625 35.332031 C 9.335938 35.332031 9.265625 35.332031 9.191406 35.335938 C 8.777344 35.328125 8.542969 35.289062 8.226562 35.015625 C 7.941406 34.648438 7.960938 34.265625 8.015625 33.820312 C 8.167969 33.5 8.328125 33.335938 8.648438 33.1875 C 8.878906 33.160156 9.109375 33.164062 9.34375 33.167969 C 9.433594 33.167969 9.433594 33.167969 9.523438 33.167969 C 9.742188 33.167969 9.960938 33.171875 10.183594 33.175781 C 10.917969 33.179688 10.917969 33.179688 11.671875 33.1875 C 11.671875 31.980469 11.671875 30.773438 11.671875 29.53125 C 11.171875 29.535156 11.171875 29.535156 10.664062 29.535156 C 9.570312 29.539062 8.472656 29.542969 7.375 29.546875 C 6.710938 29.546875 6.046875 29.550781 5.382812 29.550781 C 4.800781 29.554688 4.222656 29.558594 3.640625 29.558594 C 3.335938 29.558594 3.027344 29.558594 2.722656 29.5625 C 2.433594 29.5625 2.144531 29.5625 1.855469 29.5625 C 1.75 29.5625 1.644531 29.5625 1.539062 29.566406 C 1.390625 29.566406 1.246094 29.566406 1.101562 29.566406 C 0.980469 29.566406 0.980469 29.566406 0.855469 29.566406 C 0.515625 29.511719 0.300781 29.371094 0.09375 29.09375 C -0.0195312 28.855469 -0.0273438 28.691406 -0.0273438 28.425781 C -0.0273438 28.378906 -0.0273438 28.332031 -0.0273438 28.285156 C -0.0273438 28.125 -0.0273438 27.96875 -0.0273438 27.8125 C -0.0273438 27.699219 -0.0273438 27.585938 -0.0273438 27.472656 C -0.03125 27.160156 -0.0273438 26.847656 -0.0273438 26.535156 C -0.0273438 26.195312 -0.0273438 25.859375 -0.03125 25.523438 C -0.03125 24.863281 -0.03125 24.203125 -0.03125 23.539062 C -0.03125 23.003906 -0.03125 22.46875 -0.03125 21.929688 C -0.03125 21.855469 -0.03125 21.777344 -0.03125 21.699219 C -0.03125 21.542969 -0.03125 21.390625 -0.03125 21.234375 C -0.03125 19.78125 -0.03125 18.324219 -0.03125 16.871094 C -0.03125 15.539062 -0.03125 14.207031 -0.03125 12.875 C -0.0351562 11.507812 -0.0351562 10.144531 -0.0351562 8.777344 C -0.0351562 8.007812 -0.0351562 7.242188 -0.0351562 6.472656 C -0.0390625 5.820312 -0.0390625 5.167969 -0.0351562 4.515625 C -0.0351562 4.179688 -0.0351562 3.847656 -0.0351562 3.515625 C -0.0390625 3.210938 -0.0351562 2.902344 -0.0351562 2.597656 C -0.0351562 2.488281 -0.0351562 2.378906 -0.0351562 2.265625 C -0.0390625 2.117188 -0.0351562 1.96875 -0.0351562 1.816406 C -0.0351562 1.691406 -0.0351562 1.691406 -0.0351562 1.566406 C 0.0195312 1.214844 0.167969 1.007812 0.4375 0.785156 C 0.699219 0.675781 0.941406 0.675781 1.21875 0.675781 Z M 1.21875 0.675781 "/>
<path style=" stroke:none;fill-rule:nonzero;fill:rgb(96.078432%,93.333334%,91.37255%);fill-opacity:1;" d="M 28.757812 5.132812 C 28.78125 5.132812 28.804688 5.132812 28.828125 5.132812 C 28.84375 5.203125 28.859375 5.277344 28.875 5.351562 C 29.105469 6.382812 29.488281 7.253906 30.398438 7.859375 C 31.277344 8.390625 32.246094 8.625 33.265625 8.375 C 34.144531 8.121094 34.824219 7.628906 35.367188 6.890625 C 35.503906 6.640625 35.617188 6.382812 35.71875 6.117188 C 35.742188 6.058594 35.769531 5.996094 35.796875 5.933594 C 35.878906 5.71875 35.902344 5.503906 35.929688 5.273438 C 35.953125 5.273438 35.976562 5.273438 36 5.273438 C 36.007812 8.277344 36.011719 11.277344 36.015625 14.28125 C 36.015625 14.636719 36.015625 14.988281 36.015625 15.34375 C 36.015625 15.449219 36.015625 15.449219 36.015625 15.558594 C 36.015625 16.699219 36.019531 17.84375 36.023438 18.984375 C 36.023438 20.160156 36.027344 21.332031 36.027344 22.503906 C 36.027344 23.226562 36.027344 23.949219 36.03125 24.671875 C 36.03125 25.167969 36.03125 25.664062 36.03125 26.160156 C 36.03125 26.449219 36.03125 26.734375 36.035156 27.019531 C 36.035156 27.28125 36.035156 27.542969 36.035156 27.804688 C 36.035156 27.945312 36.035156 28.085938 36.035156 28.226562 C 36.03125 29 36.03125 29 35.71875 29.320312 C 35.449219 29.535156 35.246094 29.558594 34.90625 29.554688 C 34.859375 29.558594 34.816406 29.558594 34.769531 29.558594 C 34.617188 29.558594 34.464844 29.554688 34.3125 29.554688 C 34.207031 29.554688 34.097656 29.554688 33.988281 29.554688 C 33.691406 29.554688 33.398438 29.554688 33.101562 29.550781 C 32.792969 29.550781 32.484375 29.550781 32.175781 29.550781 C 31.59375 29.550781 31.007812 29.546875 30.425781 29.546875 C 29.761719 29.542969 29.09375 29.542969 28.429688 29.542969 C 27.0625 29.539062 25.695312 29.535156 24.328125 29.53125 C 24.328125 30.738281 24.328125 31.945312 24.328125 33.1875 C 25.304688 33.175781 25.304688 33.175781 26.28125 33.164062 C 26.402344 33.160156 26.527344 33.160156 26.648438 33.160156 C 26.710938 33.160156 26.773438 33.15625 26.839844 33.15625 C 27.234375 33.15625 27.460938 33.203125 27.773438 33.46875 C 28.058594 33.835938 28.039062 34.21875 27.984375 34.664062 C 27.832031 34.984375 27.675781 35.152344 27.351562 35.296875 C 27.101562 35.328125 26.855469 35.324219 26.601562 35.324219 C 26.527344 35.324219 26.449219 35.324219 26.371094 35.324219 C 26.113281 35.328125 25.859375 35.324219 25.601562 35.324219 C 25.417969 35.324219 25.234375 35.328125 25.050781 35.328125 C 24.601562 35.328125 24.15625 35.328125 23.707031 35.328125 C 23.34375 35.328125 22.980469 35.328125 22.617188 35.328125 C 22.566406 35.328125 22.515625 35.328125 22.460938 35.328125 C 22.355469 35.328125 22.25 35.328125 22.144531 35.328125 C 21.160156 35.328125 20.175781 35.328125 19.1875 35.328125 C 18.285156 35.328125 17.386719 35.328125 16.484375 35.328125 C 15.558594 35.332031 14.632812 35.332031 13.707031 35.332031 C 13.1875 35.332031 12.664062 35.332031 12.144531 35.332031 C 11.65625 35.335938 11.167969 35.332031 10.679688 35.332031 C 10.5 35.332031 10.320312 35.332031 10.140625 35.332031 C 9.894531 35.335938 9.652344 35.332031 9.40625 35.332031 C 9.335938 35.332031 9.265625 35.332031 9.191406 35.335938 C 8.777344 35.328125 8.542969 35.289062 8.226562 35.015625 C 7.941406 34.648438 7.960938 34.265625 8.015625 33.820312 C 8.167969 33.5 8.328125 33.335938 8.648438 33.1875 C 8.878906 33.160156 9.109375 33.164062 9.34375 33.167969 C 9.433594 33.167969 9.433594 33.167969 9.523438 33.167969 C 9.742188 33.167969 9.960938 33.171875 10.183594 33.175781 C 10.917969 33.179688 10.917969 33.179688 11.671875 33.1875 C 11.671875 31.980469 11.671875 30.773438 11.671875 29.53125 C 11.171875 29.535156 11.171875 29.535156 10.664062 29.535156 C 9.570312 29.539062 8.472656 29.542969 7.375 29.546875 C 6.710938 29.546875 6.046875 29.550781 5.382812 29.550781 C 4.800781 29.554688 4.222656 29.558594 3.640625 29.558594 C 3.335938 29.558594 3.027344 29.558594 2.722656 29.5625 C 2.433594 29.5625 2.144531 29.5625 1.855469 29.5625 C 1.75 29.5625 1.644531 29.5625 1.539062 29.566406 C 1.390625 29.566406 1.246094 29.566406 1.101562 29.566406 C 0.980469 29.566406 0.980469 29.566406 0.855469 29.566406 C 0.578125 29.523438 0.429688 29.429688 0.210938 29.25 C 0.0234375 28.988281 -0.0273438 28.808594 -0.0273438 28.488281 C -0.0273438 28.40625 -0.0273438 28.324219 -0.0273438 28.242188 C -0.0273438 28.148438 -0.0273438 28.058594 -0.0234375 27.96875 C -0.0273438 27.871094 -0.0273438 27.773438 -0.0273438 27.675781 C -0.0273438 27.410156 -0.0273438 27.144531 -0.0234375 26.878906 C -0.0234375 26.589844 -0.0234375 26.304688 -0.0234375 26.015625 C -0.0234375 25.519531 -0.0234375 25.023438 -0.0234375 24.523438 C -0.0195312 23.804688 -0.0195312 23.085938 -0.0195312 22.367188 C -0.0195312 21.203125 -0.0195312 20.035156 -0.015625 18.867188 C -0.015625 17.734375 -0.0117188 16.601562 -0.0117188 15.46875 C -0.0117188 15.398438 -0.0117188 15.328125 -0.0117188 15.257812 C -0.0117188 14.90625 -0.0117188 14.554688 -0.0117188 14.207031 C -0.0078125 11.296875 -0.00390625 8.390625 0 5.484375 C 0.140625 5.695312 0.191406 5.847656 0.257812 6.085938 C 0.472656 6.738281 0.875 7.304688 1.40625 7.734375 C 1.527344 7.792969 1.648438 7.851562 1.769531 7.910156 C 2.085938 8.101562 2.085938 8.101562 2.175781 8.320312 C 2.199219 8.53125 2.199219 8.726562 2.195312 8.9375 C 2.195312 9.058594 2.195312 9.058594 2.195312 9.179688 C 2.195312 9.441406 2.191406 9.707031 2.1875 9.972656 C 2.1875 10.164062 2.1875 10.351562 2.191406 10.542969 C 2.191406 10.949219 2.1875 11.359375 2.183594 11.769531 C 2.179688 12.359375 2.175781 12.949219 2.175781 13.542969 C 2.171875 14.5 2.167969 15.460938 2.164062 16.417969 C 2.15625 17.351562 2.152344 18.28125 2.148438 19.214844 C 2.148438 19.273438 2.148438 19.328125 2.148438 19.390625 C 2.144531 19.84375 2.144531 20.296875 2.144531 20.75 C 2.136719 22.976562 2.121094 25.199219 2.109375 27.421875 C 7.351562 27.421875 12.597656 27.421875 18 27.421875 C 18 21.179688 18 14.9375 18 8.507812 C 18.371094 8.4375 18.742188 8.367188 19.125 8.296875 C 20.003906 7.976562 20.625 7.480469 21.09375 6.679688 C 21.121094 6.632812 21.148438 6.589844 21.175781 6.542969 C 21.378906 6.164062 21.484375 5.761719 21.585938 5.34375 C 21.609375 5.34375 21.632812 5.34375 21.65625 5.34375 C 21.671875 5.417969 21.6875 5.496094 21.703125 5.570312 C 21.945312 6.511719 22.40625 7.308594 23.203125 7.875 C 24.125 8.421875 25.003906 8.570312 26.058594 8.359375 C 27.046875 8.101562 27.789062 7.523438 28.304688 6.652344 C 28.582031 6.152344 28.679688 5.691406 28.757812 5.132812 Z M 28.757812 5.132812 "/>
<path style=" stroke:none;fill-rule:nonzero;fill:rgb(99.607843%,61.176473%,12.941177%);fill-opacity:1;" d="M 1.21875 0.675781 C 1.277344 0.675781 1.335938 0.675781 1.394531 0.675781 C 1.59375 0.675781 1.792969 0.675781 1.992188 0.675781 C 2.132812 0.675781 2.277344 0.675781 2.421875 0.675781 C 2.816406 0.671875 3.210938 0.675781 3.605469 0.675781 C 4.027344 0.675781 4.453125 0.675781 4.878906 0.671875 C 5.664062 0.671875 6.449219 0.671875 7.234375 0.671875 C 7.957031 0.671875 8.683594 0.671875 9.410156 0.671875 C 9.507812 0.671875 9.605469 0.671875 9.699219 0.671875 C 9.847656 0.671875 9.992188 0.671875 10.140625 0.671875 C 11.503906 0.671875 12.863281 0.671875 14.226562 0.671875 C 14.277344 0.671875 14.328125 0.671875 14.382812 0.671875 C 14.800781 0.671875 15.214844 0.671875 15.632812 0.671875 C 17.261719 0.671875 18.886719 0.671875 20.515625 0.671875 C 22.34375 0.667969 24.167969 0.667969 25.996094 0.667969 C 26.191406 0.667969 26.386719 0.667969 26.582031 0.667969 C 26.628906 0.667969 26.675781 0.667969 26.726562 0.667969 C 27.453125 0.667969 28.175781 0.667969 28.902344 0.667969 C 29.722656 0.664062 30.546875 0.664062 31.371094 0.667969 C 31.792969 0.667969 32.214844 0.667969 32.632812 0.667969 C 33.019531 0.664062 33.402344 0.667969 33.789062 0.667969 C 33.925781 0.667969 34.066406 0.667969 34.207031 0.667969 C 34.394531 0.664062 34.585938 0.667969 34.773438 0.667969 C 34.828125 0.667969 34.882812 0.667969 34.9375 0.664062 C 35.300781 0.671875 35.507812 0.753906 35.789062 0.984375 C 35.980469 1.234375 36.027344 1.414062 36.027344 1.726562 C 36.027344 1.804688 36.027344 1.878906 36.027344 1.960938 C 36.027344 2.082031 36.027344 2.082031 36.027344 2.210938 C 36.027344 2.292969 36.027344 2.378906 36.027344 2.46875 C 36.027344 2.648438 36.023438 2.828125 36.023438 3.011719 C 36.023438 3.285156 36.023438 3.558594 36.023438 3.835938 C 36.023438 4.011719 36.023438 4.1875 36.019531 4.363281 C 36.019531 4.445312 36.019531 4.527344 36.019531 4.609375 C 36.011719 5.753906 35.671875 6.707031 34.867188 7.535156 C 34.507812 7.875 34.136719 8.109375 33.679688 8.296875 C 33.628906 8.320312 33.574219 8.34375 33.519531 8.363281 C 32.769531 8.640625 31.867188 8.601562 31.128906 8.316406 C 30.042969 7.808594 29.414062 7.128906 28.96875 6.027344 C 28.910156 5.867188 28.863281 5.71875 28.828125 5.554688 C 28.800781 5.628906 28.777344 5.707031 28.75 5.78125 C 28.355469 6.808594 27.8125 7.675781 26.789062 8.15625 C 25.753906 8.59375 24.785156 8.625 23.730469 8.230469 C 22.648438 7.757812 22.070312 6.839844 21.648438 5.785156 C 21.617188 5.707031 21.617188 5.707031 21.585938 5.625 C 21.570312 5.671875 21.554688 5.722656 21.535156 5.773438 C 21.167969 6.835938 20.636719 7.625 19.617188 8.15625 C 19.363281 8.265625 19.109375 8.359375 18.84375 8.4375 C 18.800781 8.449219 18.757812 8.464844 18.714844 8.476562 C 17.691406 8.675781 16.78125 8.429688 15.925781 7.859375 C 15.1875 7.328125 14.71875 6.648438 14.484375 5.765625 C 14.476562 5.527344 14.476562 5.527344 14.484375 5.34375 C 14.4375 5.34375 14.390625 5.34375 14.34375 5.34375 C 14.339844 5.417969 14.335938 5.496094 14.332031 5.570312 C 14.210938 6.488281 13.664062 7.230469 12.980469 7.816406 C 12.125 8.425781 11.21875 8.578125 10.195312 8.507812 C 9.277344 8.355469 8.421875 7.785156 7.871094 7.046875 C 7.542969 6.546875 7.324219 6.058594 7.171875 5.484375 C 7.15625 5.542969 7.140625 5.601562 7.125 5.660156 C 6.828125 6.710938 6.308594 7.539062 5.34375 8.085938 C 4.394531 8.558594 3.449219 8.695312 2.425781 8.363281 C 1.484375 7.976562 0.730469 7.3125 0.28125 6.398438 C 0.03125 5.761719 -0.0429688 5.179688 -0.0390625 4.503906 C -0.0390625 4.414062 -0.0390625 4.324219 -0.0390625 4.230469 C -0.0390625 4.042969 -0.0390625 3.855469 -0.0351562 3.667969 C -0.0351562 3.425781 -0.0351562 3.1875 -0.0390625 2.945312 C -0.0390625 2.714844 -0.0390625 2.484375 -0.0390625 2.253906 C -0.0390625 2.167969 -0.0390625 2.082031 -0.0390625 1.992188 C -0.03125 1.238281 -0.03125 1.238281 0.28125 0.914062 C 0.582031 0.683594 0.851562 0.671875 1.21875 0.675781 Z M 1.21875 0.675781 "/>
<path style=" stroke:none;fill-rule:nonzero;fill:rgb(32.156864%,35.686275%,86.274511%);fill-opacity:1;" d="M 35.929688 5.273438 C 35.953125 5.273438 35.976562 5.273438 36 5.273438 C 36.007812 8.277344 36.011719 11.277344 36.015625 14.28125 C 36.015625 14.636719 36.015625 14.988281 36.015625 15.34375 C 36.015625 15.449219 36.015625 15.449219 36.015625 15.558594 C 36.015625 16.699219 36.019531 17.84375 36.023438 18.984375 C 36.023438 20.160156 36.027344 21.332031 36.027344 22.503906 C 36.027344 23.226562 36.027344 23.949219 36.03125 24.671875 C 36.03125 25.167969 36.03125 25.664062 36.03125 26.160156 C 36.03125 26.449219 36.03125 26.734375 36.035156 27.019531 C 36.035156 27.28125 36.035156 27.542969 36.035156 27.804688 C 36.035156 27.945312 36.035156 28.085938 36.035156 28.226562 C 36.03125 29 36.03125 29 35.71875 29.320312 C 35.449219 29.535156 35.246094 29.558594 34.90625 29.554688 C 34.859375 29.558594 34.816406 29.558594 34.769531 29.558594 C 34.617188 29.558594 34.464844 29.554688 34.3125 29.554688 C 34.207031 29.554688 34.097656 29.554688 33.988281 29.554688 C 33.691406 29.554688 33.398438 29.554688 33.101562 29.550781 C 32.792969 29.550781 32.484375 29.550781 32.175781 29.550781 C 31.59375 29.550781 31.007812 29.546875 30.425781 29.546875 C 29.761719 29.542969 29.09375 29.542969 28.429688 29.542969 C 27.0625 29.539062 25.695312 29.535156 24.328125 29.53125 C 24.328125 30.738281 24.328125 31.945312 24.328125 33.1875 C 25.304688 33.175781 25.304688 33.175781 26.28125 33.164062 C 26.402344 33.160156 26.527344 33.160156 26.648438 33.160156 C 26.710938 33.160156 26.773438 33.15625 26.839844 33.15625 C 27.234375 33.15625 27.460938 33.203125 27.773438 33.46875 C 28.058594 33.835938 28.039062 34.21875 27.984375 34.664062 C 27.832031 34.984375 27.675781 35.152344 27.351562 35.296875 C 27.101562 35.328125 26.855469 35.324219 26.601562 35.324219 C 26.527344 35.324219 26.449219 35.324219 26.371094 35.324219 C 26.113281 35.328125 25.859375 35.324219 25.601562 35.324219 C 25.417969 35.324219 25.234375 35.328125 25.050781 35.328125 C 24.601562 35.328125 24.15625 35.328125 23.707031 35.328125 C 23.34375 35.328125 22.980469 35.328125 22.617188 35.328125 C 22.566406 35.328125 22.515625 35.328125 22.460938 35.328125 C 22.355469 35.328125 22.25 35.328125 22.144531 35.328125 C 21.160156 35.328125 20.175781 35.328125 19.1875 35.328125 C 18.285156 35.328125 17.386719 35.328125 16.484375 35.328125 C 15.558594 35.332031 14.632812 35.332031 13.707031 35.332031 C 13.1875 35.332031 12.664062 35.332031 12.144531 35.332031 C 11.65625 35.335938 11.167969 35.332031 10.679688 35.332031 C 10.5 35.332031 10.320312 35.332031 10.140625 35.332031 C 9.894531 35.335938 9.652344 35.332031 9.40625 35.332031 C 9.335938 35.332031 9.265625 35.332031 9.191406 35.335938 C 8.777344 35.328125 8.542969 35.289062 8.226562 35.015625 C 7.941406 34.648438 7.960938 34.265625 8.015625 33.820312 C 8.167969 33.5 8.328125 33.335938 8.648438 33.1875 C 8.878906 33.160156 9.109375 33.164062 9.34375 33.167969 C 9.433594 33.167969 9.433594 33.167969 9.523438 33.167969 C 9.742188 33.167969 9.960938 33.171875 10.183594 33.175781 C 10.917969 33.179688 10.917969 33.179688 11.671875 33.1875 C 11.671875 31.980469 11.671875 30.773438 11.671875 29.53125 C 11.171875 29.535156 11.171875 29.535156 10.664062 29.535156 C 9.570312 29.539062 8.472656 29.542969 7.375 29.546875 C 6.710938 29.546875 6.046875 29.550781 5.382812 29.550781 C 4.800781 29.554688 4.222656 29.558594 3.640625 29.558594 C 3.335938 29.558594 3.027344 29.558594 2.722656 29.5625 C 2.433594 29.5625 2.144531 29.5625 1.855469 29.5625 C 1.75 29.5625 1.644531 29.5625 1.539062 29.566406 C 1.390625 29.566406 1.246094 29.566406 1.101562 29.566406 C 0.980469 29.566406 0.980469 29.566406 0.855469 29.566406 C 0.578125 29.523438 0.429688 29.429688 0.210938 29.25 C 0.0234375 28.988281 -0.0273438 28.808594 -0.0273438 28.488281 C -0.0273438 28.40625 -0.0273438 28.324219 -0.0273438 28.242188 C -0.0273438 28.148438 -0.0273438 28.058594 -0.0234375 27.96875 C -0.0273438 27.871094 -0.0273438 27.773438 -0.0273438 27.675781 C -0.0273438 27.410156 -0.0273438 27.144531 -0.0234375 26.878906 C -0.0234375 26.589844 -0.0234375 26.304688 -0.0234375 26.015625 C -0.0234375 25.519531 -0.0234375 25.023438 -0.0234375 24.523438 C -0.0195312 23.804688 -0.0195312 23.085938 -0.0195312 22.367188 C -0.0195312 21.203125 -0.0195312 20.035156 -0.015625 18.867188 C -0.015625 17.734375 -0.0117188 16.601562 -0.0117188 15.46875 C -0.0117188 15.398438 -0.0117188 15.328125 -0.0117188 15.257812 C -0.0117188 14.90625 -0.0117188 14.554688 -0.0117188 14.207031 C -0.0078125 11.296875 -0.00390625 8.390625 0 5.484375 C 0.140625 5.695312 0.191406 5.847656 0.257812 6.085938 C 0.472656 6.738281 0.875 7.304688 1.40625 7.734375 C 1.527344 7.792969 1.648438 7.851562 1.769531 7.910156 C 2.085938 8.101562 2.085938 8.101562 2.175781 8.320312 C 2.199219 8.53125 2.199219 8.726562 2.195312 8.9375 C 2.195312 9.015625 2.195312 9.097656 2.195312 9.175781 C 2.195312 9.441406 2.191406 9.707031 2.1875 9.972656 C 2.1875 10.164062 2.1875 10.359375 2.191406 10.550781 C 2.191406 11.015625 2.1875 11.480469 2.183594 11.945312 C 2.175781 12.484375 2.175781 13.019531 2.175781 13.558594 C 2.171875 14.976562 2.164062 16.394531 2.152344 17.816406 C 2.140625 20.984375 2.125 24.15625 2.109375 27.421875 C 12.597656 27.421875 23.085938 27.421875 33.890625 27.421875 C 33.859375 21.105469 33.859375 21.105469 33.820312 14.785156 C 33.816406 13.566406 33.816406 13.566406 33.816406 12.992188 C 33.816406 12.59375 33.8125 12.195312 33.808594 11.792969 C 33.804688 11.332031 33.800781 10.871094 33.804688 10.410156 C 33.804688 10.175781 33.800781 9.941406 33.796875 9.703125 C 33.777344 8.300781 33.777344 8.300781 34.058594 7.941406 C 34.257812 7.816406 34.441406 7.742188 34.664062 7.664062 C 35.3125 7.160156 35.792969 6.289062 35.914062 5.476562 C 35.917969 5.410156 35.921875 5.34375 35.929688 5.273438 Z M 35.929688 5.273438 "/>
<path style=" stroke:none;fill-rule:nonzero;fill:rgb(99.607843%,49.019608%,27.843139%);fill-opacity:1;" d="M 10.449219 10.761719 C 10.734375 10.925781 10.90625 11.09375 11.039062 11.390625 C 11.082031 11.671875 11.074219 11.945312 11.0625 12.230469 C 11.058594 12.304688 11.058594 12.378906 11.054688 12.457031 C 11.050781 12.640625 11.046875 12.824219 11.039062 13.007812 C 11.910156 12.648438 11.910156 12.648438 12.5 11.953125 C 12.648438 11.707031 12.816406 11.636719 13.078125 11.53125 C 13.445312 11.484375 13.683594 11.539062 13.992188 11.742188 C 14.222656 11.976562 14.398438 12.183594 14.441406 12.515625 C 14.425781 13.171875 13.929688 13.691406 13.5 14.132812 C 13.597656 14.359375 13.699219 14.476562 13.890625 14.628906 C 14.792969 15.398438 15.589844 16.628906 15.695312 17.835938 C 15.699219 17.902344 15.707031 17.972656 15.710938 18.042969 C 15.71875 18.148438 15.71875 18.148438 15.722656 18.257812 C 15.734375 18.398438 15.738281 18.539062 15.742188 18.679688 C 15.765625 19.15625 15.882812 19.40625 16.195312 19.761719 C 16.332031 19.921875 16.410156 20.070312 16.480469 20.265625 C 16.5 20.324219 16.519531 20.378906 16.542969 20.4375 C 16.824219 21.347656 16.664062 22.222656 16.238281 23.054688 C 15.796875 23.871094 15.101562 24.261719 14.238281 24.550781 C 13.613281 24.699219 12.996094 24.652344 12.394531 24.441406 C 12.121094 24.367188 11.875 24.414062 11.601562 24.46875 C 11.546875 24.480469 11.492188 24.492188 11.433594 24.503906 C 11.328125 24.527344 11.222656 24.550781 11.121094 24.574219 C 11.070312 24.585938 11.019531 24.597656 10.96875 24.609375 C 10.917969 24.621094 10.867188 24.632812 10.816406 24.648438 C 9.257812 24.898438 7.820312 24.449219 6.546875 23.5625 C 5.25 22.558594 4.441406 21.179688 4.21875 19.546875 C 4.140625 18.664062 4.203125 17.855469 4.5 17.015625 C 4.539062 16.90625 4.539062 16.90625 4.578125 16.792969 C 4.949219 15.816406 5.621094 14.890625 6.46875 14.273438 C 6.515625 14.273438 6.5625 14.273438 6.609375 14.273438 C 6.5625 14.230469 6.515625 14.1875 6.46875 14.144531 C 6.027344 13.703125 5.625 13.207031 5.59375 12.570312 C 5.597656 12.203125 5.675781 12.023438 5.925781 11.765625 C 6.191406 11.558594 6.40625 11.503906 6.75 11.515625 C 7.050781 11.550781 7.253906 11.675781 7.453125 11.898438 C 7.5 11.964844 7.546875 12.027344 7.59375 12.09375 C 7.957031 12.582031 8.324219 12.832031 8.929688 12.9375 C 8.925781 12.875 8.925781 12.875 8.925781 12.808594 C 8.917969 12.617188 8.914062 12.421875 8.914062 12.230469 C 8.910156 12.164062 8.90625 12.097656 8.90625 12.027344 C 8.898438 11.585938 8.945312 11.328125 9.210938 10.96875 C 9.578125 10.628906 9.984375 10.625 10.449219 10.761719 Z M 10.449219 10.761719 "/>
<path style=" stroke:none;fill-rule:nonzero;fill:rgb(99.607843%,49.019608%,27.843139%);fill-opacity:1;" d="M 1.199219 0.679688 C 1.253906 0.675781 1.3125 0.675781 1.371094 0.675781 C 1.558594 0.675781 1.75 0.679688 1.9375 0.679688 C 2.074219 0.679688 2.210938 0.679688 2.34375 0.679688 C 2.714844 0.679688 3.082031 0.679688 3.453125 0.683594 C 3.835938 0.683594 4.222656 0.683594 4.605469 0.683594 C 5.335938 0.683594 6.066406 0.6875 6.796875 0.6875 C 7.625 0.691406 8.457031 0.691406 9.289062 0.691406 C 10.996094 0.695312 12.707031 0.699219 14.414062 0.703125 C 14.421875 1.289062 14.429688 1.875 14.433594 2.460938 C 14.433594 2.730469 14.4375 3.003906 14.441406 3.277344 C 14.445312 3.539062 14.445312 3.804688 14.449219 4.066406 C 14.449219 4.167969 14.449219 4.265625 14.453125 4.367188 C 14.472656 5.519531 14.179688 6.613281 13.378906 7.472656 C 12.5625 8.234375 11.558594 8.542969 10.460938 8.523438 C 9.503906 8.46875 8.652344 7.9375 8.015625 7.242188 C 7.609375 6.695312 7.34375 6.140625 7.171875 5.484375 C 7.15625 5.542969 7.140625 5.601562 7.125 5.660156 C 6.828125 6.710938 6.308594 7.539062 5.34375 8.085938 C 4.394531 8.558594 3.449219 8.695312 2.425781 8.363281 C 1.484375 7.976562 0.730469 7.3125 0.28125 6.398438 C 0.03125 5.761719 -0.0429688 5.179688 -0.0390625 4.503906 C -0.0390625 4.414062 -0.0390625 4.324219 -0.0390625 4.230469 C -0.0390625 4.042969 -0.0390625 3.855469 -0.0351562 3.667969 C -0.0351562 3.425781 -0.0351562 3.1875 -0.0390625 2.945312 C -0.0390625 2.714844 -0.0390625 2.484375 -0.0390625 2.253906 C -0.0390625 2.167969 -0.0390625 2.082031 -0.0390625 1.992188 C -0.03125 1.238281 -0.03125 1.238281 0.28125 0.914062 C 0.578125 0.6875 0.839844 0.671875 1.199219 0.679688 Z M 1.199219 0.679688 "/>
<path style=" stroke:none;fill-rule:nonzero;fill:rgb(0%,20.392157%,48.235294%);fill-opacity:1;" d="M 11.671875 29.53125 C 15.847656 29.53125 20.023438 29.53125 24.328125 29.53125 C 24.328125 30.738281 24.328125 31.945312 24.328125 33.1875 C 25.304688 33.175781 25.304688 33.175781 26.28125 33.164062 C 26.402344 33.160156 26.527344 33.160156 26.648438 33.160156 C 26.710938 33.160156 26.773438 33.15625 26.839844 33.15625 C 27.234375 33.15625 27.460938 33.203125 27.773438 33.46875 C 28.058594 33.835938 28.039062 34.21875 27.984375 34.664062 C 27.832031 34.984375 27.675781 35.152344 27.351562 35.296875 C 27.101562 35.328125 26.855469 35.324219 26.601562 35.324219 C 26.527344 35.324219 26.449219 35.324219 26.371094 35.324219 C 26.113281 35.328125 25.859375 35.324219 25.601562 35.324219 C 25.417969 35.324219 25.234375 35.328125 25.050781 35.328125 C 24.601562 35.328125 24.15625 35.328125 23.707031 35.328125 C 23.34375 35.328125 22.980469 35.328125 22.617188 35.328125 C 22.539062 35.328125 22.539062 35.328125 22.460938 35.328125 C 22.355469 35.328125 22.25 35.328125 22.144531 35.328125 C 21.160156 35.328125 20.175781 35.328125 19.1875 35.328125 C 18.285156 35.328125 17.386719 35.328125 16.484375 35.328125 C 15.558594 35.332031 14.632812 35.332031 13.707031 35.332031 C 13.1875 35.332031 12.664062 35.332031 12.144531 35.332031 C 11.65625 35.335938 11.167969 35.332031 10.679688 35.332031 C 10.5 35.332031 10.320312 35.332031 10.140625 35.332031 C 9.894531 35.335938 9.652344 35.332031 9.40625 35.332031 C 9.300781 35.332031 9.300781 35.332031 9.191406 35.335938 C 8.777344 35.328125 8.542969 35.289062 8.226562 35.015625 C 7.941406 34.648438 7.960938 34.265625 8.015625 33.820312 C 8.167969 33.5 8.328125 33.335938 8.648438 33.1875 C 8.878906 33.160156 9.109375 33.164062 9.34375 33.167969 C 9.433594 33.167969 9.433594 33.167969 9.523438 33.167969 C 9.742188 33.167969 9.960938 33.171875 10.183594 33.175781 C 10.917969 33.179688 10.917969 33.179688 11.671875 33.1875 C 11.671875 31.980469 11.671875 30.773438 11.671875 29.53125 Z M 11.671875 29.53125 "/>
<path style=" stroke:none;fill-rule:nonzero;fill:rgb(27.843139%,57.647061%,99.607843%);fill-opacity:1;" d="M 0 5.484375 C 0.140625 5.695312 0.191406 5.847656 0.257812 6.085938 C 0.472656 6.738281 0.875 7.304688 1.40625 7.734375 C 1.527344 7.792969 1.648438 7.851562 1.769531 7.910156 C 2.085938 8.101562 2.085938 8.101562 2.175781 8.320312 C 2.199219 8.53125 2.199219 8.726562 2.195312 8.9375 C 2.195312 9.058594 2.195312 9.058594 2.195312 9.179688 C 2.195312 9.441406 2.191406 9.707031 2.1875 9.972656 C 2.1875 10.164062 2.1875 10.351562 2.191406 10.542969 C 2.191406 10.949219 2.1875 11.359375 2.183594 11.769531 C 2.179688 12.359375 2.175781 12.949219 2.175781 13.542969 C 2.171875 14.5 2.167969 15.460938 2.164062 16.417969 C 2.15625 17.351562 2.152344 18.28125 2.148438 19.214844 C 2.148438 19.273438 2.148438 19.328125 2.148438 19.390625 C 2.144531 19.84375 2.144531 20.296875 2.144531 20.75 C 2.136719 22.976562 2.121094 25.199219 2.109375 27.421875 C 7.351562 27.421875 12.597656 27.421875 18 27.421875 C 18 28.117188 18 28.8125 18 29.53125 C 15.792969 29.539062 13.589844 29.542969 11.382812 29.546875 C 11.125 29.546875 10.863281 29.546875 10.601562 29.546875 C 10.523438 29.546875 10.523438 29.546875 10.445312 29.546875 C 9.605469 29.546875 8.765625 29.550781 7.929688 29.554688 C 7.066406 29.554688 6.207031 29.558594 5.34375 29.558594 C 4.8125 29.558594 4.28125 29.558594 3.75 29.5625 C 3.34375 29.5625 2.9375 29.5625 2.527344 29.5625 C 2.359375 29.5625 2.195312 29.5625 2.027344 29.566406 C 1.800781 29.566406 1.570312 29.566406 1.34375 29.566406 C 1.277344 29.566406 1.210938 29.566406 1.140625 29.566406 C 0.75 29.5625 0.515625 29.519531 0.210938 29.25 C 0.0234375 28.988281 -0.0273438 28.808594 -0.0273438 28.488281 C -0.0273438 28.40625 -0.0273438 28.324219 -0.0273438 28.242188 C -0.0273438 28.148438 -0.0273438 28.058594 -0.0234375 27.96875 C -0.0273438 27.871094 -0.0273438 27.773438 -0.0273438 27.675781 C -0.0273438 27.410156 -0.0273438 27.144531 -0.0234375 26.878906 C -0.0234375 26.589844 -0.0234375 26.304688 -0.0234375 26.015625 C -0.0234375 25.519531 -0.0234375 25.023438 -0.0234375 24.523438 C -0.0195312 23.804688 -0.0195312 23.085938 -0.0195312 22.367188 C -0.0195312 21.203125 -0.0195312 20.035156 -0.015625 18.867188 C -0.015625 17.734375 -0.0117188 16.601562 -0.0117188 15.46875 C -0.0117188 15.398438 -0.0117188 15.328125 -0.0117188 15.257812 C -0.0117188 14.90625 -0.0117188 14.554688 -0.0117188 14.207031 C -0.0078125 11.296875 -0.00390625 8.390625 0 5.484375 Z M 0 5.484375 "/>
<path style=" stroke:none;fill-rule:nonzero;fill:rgb(0%,79.607844%,45.882353%);fill-opacity:1;" d="M 20.894531 19.089844 C 21.003906 19.089844 21.113281 19.085938 21.222656 19.085938 C 21.515625 19.085938 21.808594 19.085938 22.101562 19.085938 C 22.410156 19.089844 22.71875 19.085938 23.027344 19.085938 C 23.546875 19.085938 24.0625 19.085938 24.582031 19.089844 C 25.179688 19.089844 25.777344 19.089844 26.375 19.085938 C 26.886719 19.085938 27.402344 19.085938 27.914062 19.085938 C 28.222656 19.085938 28.527344 19.085938 28.835938 19.085938 C 29.125 19.085938 29.414062 19.085938 29.699219 19.089844 C 29.804688 19.089844 29.910156 19.089844 30.015625 19.085938 C 30.574219 19.085938 31.023438 19.089844 31.5 19.40625 C 31.890625 19.851562 31.820312 20.394531 31.820312 20.957031 C 31.820312 21.0625 31.820312 21.164062 31.820312 21.269531 C 31.820312 21.484375 31.820312 21.699219 31.816406 21.917969 C 31.816406 22.195312 31.816406 22.46875 31.820312 22.746094 C 31.820312 22.960938 31.820312 23.171875 31.820312 23.386719 C 31.820312 23.488281 31.820312 23.589844 31.820312 23.691406 C 31.824219 24.832031 31.824219 24.832031 31.5 25.171875 C 31.035156 25.546875 30.503906 25.492188 29.933594 25.488281 C 29.824219 25.488281 29.714844 25.492188 29.605469 25.492188 C 29.308594 25.492188 29.011719 25.492188 28.714844 25.492188 C 28.40625 25.488281 28.09375 25.492188 27.785156 25.492188 C 27.265625 25.492188 26.742188 25.492188 26.222656 25.488281 C 25.617188 25.488281 25.015625 25.488281 24.414062 25.492188 C 23.898438 25.492188 23.378906 25.492188 22.863281 25.492188 C 22.554688 25.492188 22.246094 25.492188 21.9375 25.492188 C 21.644531 25.492188 21.355469 25.492188 21.0625 25.488281 C 20.957031 25.488281 20.851562 25.488281 20.746094 25.492188 C 19.738281 25.496094 19.738281 25.496094 19.335938 25.171875 C 18.929688 24.75 19.015625 24.082031 19.015625 23.542969 C 19.015625 23.4375 19.015625 23.332031 19.015625 23.230469 C 19.015625 23.015625 19.015625 22.796875 19.019531 22.582031 C 19.019531 22.304688 19.019531 22.027344 19.015625 21.753906 C 19.015625 21.539062 19.015625 21.324219 19.015625 21.109375 C 19.015625 21.007812 19.015625 20.90625 19.015625 20.804688 C 19.011719 19.785156 19.011719 19.785156 19.335938 19.40625 C 19.804688 19.035156 20.324219 19.085938 20.894531 19.089844 Z M 20.894531 19.089844 "/>
<path style=" stroke:none;fill-rule:nonzero;fill:rgb(99.607843%,25.098041%,36.078432%);fill-opacity:1;" d="M 14.414062 0.703125 C 16.78125 0.703125 19.148438 0.703125 21.585938 0.703125 C 21.589844 1.5 21.597656 2.296875 21.601562 3.117188 C 21.605469 3.367188 21.609375 3.617188 21.609375 3.871094 C 21.613281 4.183594 21.613281 4.183594 21.613281 4.328125 C 21.613281 4.425781 21.613281 4.527344 21.617188 4.628906 C 21.632812 5.753906 21.328125 6.679688 20.550781 7.515625 C 20.058594 7.972656 19.484375 8.246094 18.84375 8.4375 C 18.800781 8.449219 18.757812 8.464844 18.714844 8.476562 C 17.691406 8.675781 16.78125 8.429688 15.925781 7.859375 C 15.136719 7.292969 14.636719 6.53125 14.445312 5.570312 C 14.414062 5.332031 14.40625 5.109375 14.40625 4.871094 C 14.40625 4.824219 14.40625 4.777344 14.40625 4.730469 C 14.40625 4.582031 14.40625 4.433594 14.40625 4.289062 C 14.40625 4.195312 14.40625 4.105469 14.40625 4.011719 C 14.40625 3.675781 14.410156 3.335938 14.410156 2.996094 C 14.410156 2.238281 14.414062 1.484375 14.414062 0.703125 Z M 14.414062 0.703125 "/>
<path style=" stroke:none;fill-rule:nonzero;fill:rgb(99.607843%,82.745099%,12.941177%);fill-opacity:1;" d="M 7.242188 0.703125 C 9.609375 0.703125 11.976562 0.703125 14.414062 0.703125 C 14.421875 1.445312 14.429688 2.1875 14.4375 2.953125 C 14.4375 3.183594 14.441406 3.417969 14.445312 3.65625 C 14.445312 3.84375 14.449219 4.03125 14.449219 4.21875 C 14.449219 4.265625 14.449219 4.3125 14.453125 4.359375 C 14.472656 5.515625 14.179688 6.609375 13.375 7.46875 C 12.5625 8.234375 11.558594 8.542969 10.460938 8.523438 C 9.503906 8.46875 8.652344 7.9375 8.015625 7.242188 C 7.519531 6.582031 7.234375 5.964844 7.234375 5.132812 C 7.234375 5.085938 7.234375 5.035156 7.234375 4.984375 C 7.234375 4.828125 7.234375 4.671875 7.234375 4.515625 C 7.234375 4.417969 7.234375 4.320312 7.234375 4.222656 C 7.234375 3.863281 7.238281 3.503906 7.238281 3.140625 C 7.238281 2.335938 7.242188 1.53125 7.242188 0.703125 Z M 7.242188 0.703125 "/>
<path style=" stroke:none;fill-rule:nonzero;fill:rgb(99.607843%,25.098041%,36.078432%);fill-opacity:1;" d="M 28.828125 0.703125 C 29.671875 0.695312 30.519531 0.691406 31.363281 0.6875 C 31.757812 0.6875 32.148438 0.683594 32.542969 0.683594 C 32.921875 0.679688 33.300781 0.675781 33.679688 0.675781 C 33.824219 0.675781 33.96875 0.675781 34.113281 0.671875 C 34.3125 0.671875 34.515625 0.671875 34.71875 0.671875 C 34.808594 0.667969 34.808594 0.667969 34.898438 0.667969 C 35.277344 0.671875 35.496094 0.726562 35.789062 0.984375 C 35.980469 1.234375 36.027344 1.414062 36.027344 1.726562 C 36.027344 1.84375 36.027344 1.84375 36.027344 1.960938 C 36.027344 2.042969 36.027344 2.125 36.027344 2.210938 C 36.027344 2.335938 36.027344 2.335938 36.027344 2.46875 C 36.027344 2.648438 36.023438 2.828125 36.023438 3.011719 C 36.023438 3.285156 36.023438 3.558594 36.023438 3.835938 C 36.023438 4.011719 36.023438 4.1875 36.019531 4.363281 C 36.019531 4.445312 36.019531 4.527344 36.019531 4.609375 C 36.011719 5.753906 35.671875 6.707031 34.867188 7.535156 C 34.507812 7.875 34.136719 8.109375 33.679688 8.296875 C 33.628906 8.320312 33.574219 8.34375 33.519531 8.363281 C 32.769531 8.640625 31.867188 8.601562 31.128906 8.316406 C 30.042969 7.808594 29.414062 7.128906 28.96875 6.027344 C 28.859375 5.730469 28.816406 5.472656 28.804688 5.15625 C 28.804688 5.074219 28.800781 4.996094 28.796875 4.910156 C 28.792969 4.824219 28.792969 4.738281 28.789062 4.648438 C 28.785156 4.558594 28.78125 4.46875 28.78125 4.378906 C 28.757812 3.710938 28.75 3.042969 28.75 2.378906 C 28.75 2.289062 28.75 2.203125 28.746094 2.113281 C 28.75 2.03125 28.75 1.949219 28.75 1.863281 C 28.75 1.792969 28.75 1.722656 28.75 1.648438 C 28.757812 1.441406 28.773438 1.242188 28.792969 1.039062 C 28.800781 0.976562 28.804688 0.914062 28.8125 0.847656 C 28.816406 0.800781 28.824219 0.753906 28.828125 0.703125 Z M 28.828125 0.703125 "/>
<path style=" stroke:none;fill-rule:nonzero;fill:rgb(0%,25.490198%,61.56863%);fill-opacity:1;" d="M 11.671875 29.53125 C 13.761719 29.53125 15.847656 29.53125 18 29.53125 C 18 31.433594 18 33.335938 18 35.296875 C 15.671875 35.308594 15.671875 35.308594 14.695312 35.3125 C 14.023438 35.3125 13.347656 35.3125 12.675781 35.316406 C 12.183594 35.320312 11.695312 35.324219 11.203125 35.324219 C 10.945312 35.324219 10.683594 35.324219 10.425781 35.328125 C 10.136719 35.328125 9.84375 35.328125 9.554688 35.328125 C 9.46875 35.328125 9.382812 35.332031 9.292969 35.332031 C 8.847656 35.328125 8.5625 35.324219 8.226562 35.015625 C 7.941406 34.648438 7.960938 34.265625 8.015625 33.820312 C 8.167969 33.5 8.328125 33.335938 8.648438 33.1875 C 8.878906 33.160156 9.109375 33.164062 9.34375 33.167969 C 9.433594 33.167969 9.433594 33.167969 9.523438 33.167969 C 9.742188 33.167969 9.960938 33.171875 10.183594 33.175781 C 10.917969 33.179688 10.917969 33.179688 11.671875 33.1875 C 11.671875 31.980469 11.671875 30.773438 11.671875 29.53125 Z M 11.671875 29.53125 "/>
<path style=" stroke:none;fill-rule:nonzero;fill:rgb(100%,25.098041%,36.078432%);fill-opacity:1;" d="M 15.429688 18.90625 C 16.082031 19.453125 16.535156 20.101562 16.664062 20.953125 C 16.742188 21.9375 16.484375 22.785156 15.910156 23.585938 C 15.382812 24.164062 14.511719 24.566406 13.738281 24.628906 C 12.710938 24.632812 11.988281 24.378906 11.203125 23.699219 C 10.566406 23.027344 10.308594 22.117188 10.316406 21.21875 C 10.382812 20.328125 10.773438 19.636719 11.414062 19.03125 C 12.554688 18.070312 14.226562 17.988281 15.429688 18.90625 Z M 15.429688 18.90625 "/>
<path style=" stroke:none;fill-rule:nonzero;fill:rgb(61.56863%,87.450981%,96.078432%);fill-opacity:1;" d="M 20.902344 10.652344 C 21.011719 10.652344 21.121094 10.648438 21.230469 10.648438 C 21.523438 10.648438 21.820312 10.648438 22.117188 10.648438 C 22.425781 10.652344 22.738281 10.648438 23.046875 10.648438 C 23.570312 10.648438 24.089844 10.648438 24.609375 10.652344 C 25.210938 10.652344 25.8125 10.652344 26.414062 10.648438 C 26.933594 10.648438 27.449219 10.648438 27.96875 10.648438 C 28.277344 10.648438 28.585938 10.648438 28.894531 10.648438 C 29.183594 10.648438 29.472656 10.648438 29.761719 10.652344 C 29.871094 10.652344 29.976562 10.652344 30.082031 10.648438 C 30.636719 10.648438 31.097656 10.648438 31.570312 10.96875 C 31.761719 11.191406 31.84375 11.410156 31.886719 11.703125 C 31.828125 12.117188 31.71875 12.398438 31.386719 12.664062 C 30.964844 12.894531 30.464844 12.835938 29.996094 12.832031 C 29.886719 12.832031 29.777344 12.835938 29.667969 12.835938 C 29.367188 12.835938 29.070312 12.835938 28.773438 12.835938 C 28.460938 12.832031 28.148438 12.835938 27.835938 12.835938 C 27.3125 12.835938 26.785156 12.835938 26.261719 12.832031 C 25.65625 12.832031 25.050781 12.832031 24.445312 12.835938 C 23.921875 12.835938 23.402344 12.835938 22.882812 12.835938 C 22.570312 12.835938 22.257812 12.835938 21.949219 12.835938 C 21.65625 12.835938 21.363281 12.835938 21.070312 12.832031 C 20.964844 12.832031 20.859375 12.832031 20.75 12.835938 C 19.746094 12.839844 19.746094 12.839844 19.335938 12.515625 C 19.136719 12.273438 19.0625 12.011719 19.019531 11.703125 C 19.078125 11.300781 19.203125 11.074219 19.523438 10.824219 C 19.941406 10.589844 20.4375 10.648438 20.902344 10.652344 Z M 20.902344 10.652344 "/>
<path style=" stroke:none;fill-rule:nonzero;fill:rgb(100%,49.019608%,27.843139%);fill-opacity:1;" d="M 14.414062 0.703125 C 15.597656 0.703125 16.78125 0.703125 18 0.703125 C 18 3.277344 18 5.855469 18 8.507812 C 16.953125 8.507812 16.1875 8.128906 15.398438 7.453125 C 14.746094 6.714844 14.402344 5.855469 14.40625 4.871094 C 14.40625 4.824219 14.40625 4.777344 14.40625 4.734375 C 14.40625 4.585938 14.40625 4.4375 14.40625 4.289062 C 14.40625 4.183594 14.40625 4.082031 14.40625 3.976562 C 14.40625 3.707031 14.410156 3.433594 14.410156 3.164062 C 14.410156 2.835938 14.410156 2.511719 14.410156 2.1875 C 14.410156 1.691406 14.414062 1.199219 14.414062 0.703125 Z M 14.414062 0.703125 "/>
<path style=" stroke:none;fill-rule:nonzero;fill:rgb(61.56863%,87.450981%,96.078432%);fill-opacity:1;" d="M 20.488281 14.871094 C 20.550781 14.871094 20.617188 14.867188 20.683594 14.867188 C 20.894531 14.867188 21.105469 14.867188 21.316406 14.867188 C 21.464844 14.867188 21.613281 14.867188 21.761719 14.867188 C 22.070312 14.867188 22.378906 14.867188 22.6875 14.871094 C 23.082031 14.871094 23.480469 14.871094 23.875 14.867188 C 24.179688 14.867188 24.484375 14.867188 24.789062 14.867188 C 24.933594 14.867188 25.082031 14.867188 25.226562 14.867188 C 25.429688 14.867188 25.632812 14.867188 25.839844 14.871094 C 25.929688 14.867188 25.929688 14.867188 26.019531 14.867188 C 26.417969 14.875 26.742188 14.953125 27.070312 15.1875 C 27.265625 15.410156 27.34375 15.628906 27.386719 15.921875 C 27.34375 16.230469 27.269531 16.492188 27.070312 16.734375 C 26.675781 17.007812 26.386719 17.054688 25.910156 17.050781 C 25.8125 17.054688 25.8125 17.054688 25.714844 17.054688 C 25.5 17.054688 25.285156 17.054688 25.070312 17.054688 C 24.921875 17.054688 24.773438 17.054688 24.621094 17.054688 C 24.308594 17.054688 23.996094 17.054688 23.683594 17.050781 C 23.285156 17.050781 22.882812 17.050781 22.484375 17.054688 C 22.175781 17.054688 21.867188 17.054688 21.558594 17.054688 C 21.410156 17.054688 21.261719 17.054688 21.113281 17.054688 C 20.910156 17.054688 20.703125 17.054688 20.496094 17.050781 C 20.433594 17.050781 20.375 17.054688 20.3125 17.054688 C 19.90625 17.046875 19.671875 16.964844 19.335938 16.734375 C 19.136719 16.492188 19.0625 16.230469 19.019531 15.921875 C 19.0625 15.628906 19.132812 15.40625 19.335938 15.1875 C 19.730469 14.914062 20.015625 14.867188 20.488281 14.871094 Z M 20.488281 14.871094 "/>
<path style=" stroke:none;fill-rule:nonzero;fill:rgb(74.901962%,90.196079%,37.254903%);fill-opacity:1;" d="M 10.449219 10.761719 C 10.734375 10.925781 10.90625 11.09375 11.039062 11.390625 C 11.082031 11.671875 11.074219 11.945312 11.0625 12.230469 C 11.058594 12.304688 11.058594 12.378906 11.054688 12.457031 C 11.050781 12.640625 11.046875 12.824219 11.039062 13.007812 C 11.910156 12.648438 11.910156 12.648438 12.5 11.953125 C 12.648438 11.707031 12.816406 11.636719 13.078125 11.53125 C 13.445312 11.484375 13.683594 11.539062 13.992188 11.742188 C 14.222656 11.976562 14.398438 12.183594 14.441406 12.515625 C 14.425781 13.207031 13.882812 13.738281 13.429688 14.203125 C 13.175781 14.109375 12.941406 13.992188 12.699219 13.863281 C 11.332031 13.144531 9.777344 12.960938 8.277344 13.402344 C 7.796875 13.582031 7.34375 13.816406 6.890625 14.0625 C 6.796875 14.109375 6.703125 14.15625 6.609375 14.203125 C 6.140625 13.835938 5.679688 13.382812 5.601562 12.765625 C 5.585938 12.410156 5.582031 12.160156 5.820312 11.878906 C 6.058594 11.628906 6.253906 11.539062 6.601562 11.507812 C 6.882812 11.519531 7.074219 11.585938 7.3125 11.742188 C 7.453125 11.898438 7.453125 11.898438 7.59375 12.09375 C 7.957031 12.582031 8.324219 12.832031 8.929688 12.9375 C 8.929688 12.894531 8.925781 12.851562 8.925781 12.808594 C 8.917969 12.617188 8.914062 12.421875 8.914062 12.230469 C 8.910156 12.164062 8.90625 12.097656 8.90625 12.027344 C 8.898438 11.585938 8.945312 11.328125 9.210938 10.96875 C 9.578125 10.628906 9.984375 10.625 10.449219 10.761719 Z M 10.449219 10.761719 "/>
</g>
</svg>
